<svg xmlns="http://www.w3.org/2000/svg" xmlns:xlink="http://www.w3.org/1999/xlink" width="1920" zoomAndPan="magnify" viewBox="0 0 1440 809.999993" height="1080" preserveAspectRatio="xMidYMid meet" version="1.0"><defs><clipPath id="747ef3e452"><path d="M 469 125 L 944 125 L 944 403 L 469 403 Z M 469 125 " clip-rule="nonzero"/></clipPath><clipPath id="cc7ff95f78"><path d="M 579.507812 23.652344 L 1068.324219 179.296875 L 860.347656 832.484375 L 371.527344 676.84375 Z M 579.507812 23.652344 " clip-rule="nonzero"/></clipPath><clipPath id="f8c971ef2a"><path d="M 579.507812 23.652344 L 1068.324219 179.296875 L 860.347656 832.484375 L 371.527344 676.84375 Z M 579.507812 23.652344 " clip-rule="nonzero"/></clipPath><clipPath id="b7428cd69f"><path d="M 415 192 L 1024 192 L 1024 541 L 415 541 Z M 415 192 " clip-rule="nonzero"/></clipPath><clipPath id="27ec9af13c"><path d="M 579.507812 23.652344 L 1068.324219 179.296875 L 860.347656 832.484375 L 371.527344 676.84375 Z M 579.507812 23.652344 " clip-rule="nonzero"/></clipPath><clipPath id="2914932577"><path d="M 579.507812 23.652344 L 1068.324219 179.296875 L 860.347656 832.484375 L 371.527344 676.84375 Z M 579.507812 23.652344 " clip-rule="nonzero"/></clipPath><clipPath id="0d61a1b405"><path d="M 404 320 L 1022 320 L 1022 688 L 404 688 Z M 404 320 " clip-rule="nonzero"/></clipPath><clipPath id="11bef559a0"><path d="M 579.507812 23.652344 L 1068.324219 179.296875 L 860.347656 832.484375 L 371.527344 676.84375 Z M 579.507812 23.652344 " clip-rule="nonzero"/></clipPath><clipPath id="09baa9464d"><path d="M 579.507812 23.652344 L 1068.324219 179.296875 L 860.347656 832.484375 L 371.527344 676.84375 Z M 579.507812 23.652344 " clip-rule="nonzero"/></clipPath><clipPath id="966f7d71c4"><path d="M 502 411 L 985 411 L 985 717 L 502 717 Z M 502 411 " clip-rule="nonzero"/></clipPath><clipPath id="2ddc61e28d"><path d="M 579.507812 23.652344 L 1068.324219 179.296875 L 860.347656 832.484375 L 371.527344 676.84375 Z M 579.507812 23.652344 " clip-rule="nonzero"/></clipPath><clipPath id="684086c4de"><path d="M 579.507812 23.652344 L 1068.324219 179.296875 L 860.347656 832.484375 L 371.527344 676.84375 Z M 579.507812 23.652344 " clip-rule="nonzero"/></clipPath><clipPath id="8e7bf75a6b"><path d="M 56 103.949219 L 371.542969 103.949219 L 371.542969 427.949219 L 56 427.949219 Z M 56 103.949219 " clip-rule="nonzero"/></clipPath></defs><g clip-path="url(#747ef3e452)"><g clip-path="url(#cc7ff95f78)"><g clip-path="url(#f8c971ef2a)"><path fill="#ff7f00" d="M 471.660156 400.863281 C 475.996094 396.015625 480.128906 390.9375 484.515625 386.070312 C 488.933594 381.25 493.453125 376.453125 498.480469 372.125 C 503.425781 367.941406 507.816406 363.097656 513.269531 359.429688 C 518.371094 356.050781 523.347656 352.46875 528.488281 349.136719 C 530.785156 347.6875 532.535156 346.027344 533.347656 343.429688 C 533.855469 341.828125 534.710938 340.3125 535.367188 338.738281 C 535.753906 337.8125 536.390625 337.324219 537.386719 337.050781 C 540.445312 336.199219 543.503906 335.34375 546.5625 334.496094 C 547.945312 334.109375 549.25 333.652344 550.410156 332.628906 C 558.613281 325.355469 567.054688 318.3125 575.511719 311.230469 C 576.3125 310.574219 576.835938 309.828125 577.167969 308.886719 C 578.496094 305.097656 579.867188 301.3125 581.25 297.515625 C 581.5 296.828125 581.6875 296.144531 582.664062 295.972656 C 584.898438 295.582031 587.117188 295.113281 589.339844 294.636719 C 591.570312 294.15625 593.769531 294.023438 595.390625 291.738281 C 598.238281 287.742188 601.558594 284.011719 604.609375 280.125 C 605.613281 278.859375 606.769531 278.144531 608.3125 277.691406 C 615.421875 275.617188 622.4375 273.289062 629.324219 270.496094 C 631.722656 269.515625 634.222656 268.59375 636.140625 266.839844 C 639.992188 263.285156 644.53125 260.792969 649.128906 258.386719 C 651.734375 257.023438 654.359375 255.460938 657.25 254.988281 C 663.148438 254.058594 668.949219 252.585938 674.800781 251.496094 C 675.824219 251.304688 676.457031 250.847656 676.734375 249.792969 C 677.351562 247.449219 678.109375 245.140625 678.78125 242.8125 C 679.042969 241.90625 679.476562 241.183594 680.378906 240.664062 C 688.558594 235.9375 695.6875 229.902344 702.695312 223.714844 C 703.398438 223.09375 704.101562 222.46875 705.078125 222.265625 C 713.238281 220.609375 721.390625 218.921875 729.5625 217.332031 C 730.855469 217.078125 731.671875 216.550781 732.367188 215.511719 C 734.570312 212.253906 736.78125 208.992188 738.984375 205.734375 C 739.632812 204.757812 740.382812 204.308594 741.570312 204.289062 C 743.722656 204.253906 745.882812 204.027344 748.035156 203.996094 C 749.375 203.976562 750.339844 203.480469 751.273438 202.53125 C 754.507812 199.304688 757.742188 196.074219 760.976562 192.851562 C 761.832031 191.984375 762.726562 191.5625 763.925781 191.59375 C 766.820312 191.664062 769.726562 191.652344 772.617188 191.753906 C 774.058594 191.808594 775.324219 191.570312 776.585938 190.703125 C 779.550781 188.667969 782.613281 186.769531 785.597656 184.761719 C 786.625 184.066406 787.660156 183.738281 788.875 183.710938 C 795.914062 183.5625 802.953125 183.367188 809.972656 183.28125 C 811.207031 183.261719 812.203125 182.929688 813.230469 182.261719 C 822.195312 176.414062 831.191406 170.621094 840.28125 164.957031 C 842.167969 163.773438 843.917969 162.347656 846.089844 161.640625 C 854.261719 158.996094 862.464844 156.402344 870.589844 153.890625 C 877.171875 151.855469 883.683594 149.835938 889.839844 146.894531 C 890.992188 146.351562 891.988281 145.648438 892.863281 144.691406 C 894.667969 142.6875 896.824219 141.226562 899.152344 140.203125 C 901.496094 139.253906 904.007812 138.722656 906.5625 138.851562 C 912.742188 139.058594 918.773438 140.238281 924.640625 141.1875 C 930.726562 142.171875 936.570312 143.5625 942.097656 145.355469 C 942.421875 145.453125 942.789062 145.648438 943.09375 145.117188 C 942.070312 144.0625 940.742188 143.449219 939.496094 142.679688 C 928.242188 135.742188 915 130.464844 901.066406 126.238281 C 898.445312 125.464844 896.046875 125.753906 893.601562 127.015625 C 889.585938 129.082031 885.984375 131.664062 882.597656 134.460938 C 881.617188 135.269531 880.761719 135.511719 879.527344 135.207031 C 872.285156 133.449219 864.894531 131.957031 857.527344 130.472656 C 856.191406 130.207031 855.109375 130.351562 853.859375 131.171875 C 847.132812 135.597656 840.582031 140.058594 833.835938 144.304688 C 828.414062 147.722656 823.285156 151.773438 816.394531 152.164062 C 811.726562 152.445312 807.042969 153.410156 802.367188 153.371094 C 800.492188 153.351562 798.40625 153.574219 796.835938 152.398438 C 795.683594 151.53125 794.519531 151.652344 793.230469 152.144531 C 790.914062 153.042969 788.949219 154.492188 787.09375 156.058594 C 786.058594 156.933594 785.226562 157.1875 783.976562 156.582031 C 781.667969 155.464844 779.097656 155.128906 776.410156 155.1875 C 771.9375 155.277344 767.839844 156.722656 763.886719 158.765625 C 758.738281 161.414062 753.507812 163.851562 747.816406 164.882812 C 745.523438 165.300781 743.9375 166.25 742.707031 168.164062 C 740.609375 171.425781 738.375 174.621094 735.511719 177.375 C 733.527344 179.285156 731.277344 180.777344 728.574219 181.46875 C 723.265625 182.832031 717.875 183.609375 712.488281 184.394531 C 706.695312 185.242188 700.902344 186.105469 695.089844 186.695312 C 690.832031 187.128906 687.554688 188.992188 684.71875 192.085938 C 682.621094 194.375 680.472656 196.628906 678.460938 198.976562 C 676.566406 201.1875 674.4375 203 671.542969 203.996094 C 668.1875 205.152344 664.953125 206.722656 661.582031 207.835938 C 657.027344 209.328125 652.949219 211.347656 650.390625 215.574219 C 649.800781 216.550781 648.859375 217.347656 648.066406 218.214844 C 642.289062 224.519531 635.894531 229.90625 627.578125 233.121094 C 615.554688 237.8125 603.464844 242.40625 591.460938 247.316406 C 584.300781 250.214844 585.035156 248.757812 581.902344 256.742188 C 580.1875 261.125 578.226562 265.289062 574.539062 268.648438 C 573.375 269.710938 572.535156 271.113281 571.566406 272.367188 C 569.253906 275.378906 566.832031 278.210938 563.078125 279.710938 C 561.945312 280.164062 560.925781 280.976562 559.917969 281.707031 C 556.6875 284.054688 553.78125 286.789062 550.808594 289.425781 C 548.605469 291.394531 546.863281 293.582031 545.566406 296.164062 C 544.347656 298.566406 542.839844 300.886719 541.503906 303.269531 C 539.660156 306.570312 537.476562 309.53125 534.925781 312.171875 C 533.648438 313.492188 532.28125 314.726562 530.820312 315.886719 C 529.371094 317.066406 527.828125 318.171875 526.183594 319.199219 C 520.542969 322.761719 514.964844 326.421875 509.292969 329.941406 C 507.074219 331.296875 506.910156 331.980469 508.335938 333.921875 C 509.464844 335.457031 510.820312 336.835938 511.738281 338.523438 C 513.15625 341.136719 512.648438 343.054688 509.847656 344.578125 C 507.542969 345.832031 505.519531 347.351562 503.71875 349.09375 C 501.929688 350.859375 500.355469 352.816406 498.894531 354.894531 C 496.425781 358.417969 494.121094 362.019531 491.839844 365.613281 C 489.59375 369.257812 487.386719 372.910156 485.039062 376.460938 C 483.660156 378.558594 482.304688 380.667969 480.976562 382.785156 C 479.648438 384.894531 478.394531 387.082031 477.125 389.230469 L 469.632812 402.125 L 469.746094 402.773438 C 470.394531 402.144531 471.066406 401.53125 471.660156 400.863281 Z M 471.660156 400.863281 " fill-opacity="1" fill-rule="nonzero"/></g></g></g><g clip-path="url(#b7428cd69f)"><g clip-path="url(#27ec9af13c)"><g clip-path="url(#2914932577)"><path fill="#ff7f00" d="M 471.09375 500.738281 C 474.601562 498.296875 478.117188 495.867188 481.902344 493.753906 L 502.882812 481.71875 C 505.972656 479.945312 508.433594 477.992188 509.90625 475.117188 C 510.816406 473.34375 512.132812 471.636719 513.21875 469.886719 C 513.855469 468.851562 514.722656 468.273438 515.992188 467.898438 C 519.894531 466.742188 523.796875 465.507812 527.695312 464.269531 C 529.464844 463.714844 531.132812 463.078125 532.703125 461.835938 C 538.296875 457.480469 543.890625 453.125 549.484375 448.761719 L 557.875 442.25 L 566.214844 435.679688 C 567.261719 434.855469 567.976562 433.976562 568.476562 432.917969 C 570.503906 428.671875 572.535156 424.414062 574.566406 420.160156 C 574.9375 419.386719 575.226562 418.628906 576.433594 418.300781 C 579.175781 417.550781 581.933594 416.753906 584.65625 415.875 C 587.390625 415.003906 590.070312 414.5 592.21875 411.796875 C 595.984375 407.058594 600.292969 402.5625 604.25 397.910156 C 605.542969 396.386719 606.988281 395.4375 608.882812 394.6875 C 617.59375 391.226562 626.238281 387.53125 634.695312 383.273438 C 637.648438 381.785156 640.722656 380.347656 643.128906 378.117188 C 647.96875 373.636719 653.53125 370.097656 659.195312 366.660156 C 662.40625 364.714844 665.632812 362.550781 669.152344 361.496094 C 676.308594 359.355469 683.367188 356.648438 690.488281 354.34375 C 691.730469 353.941406 692.511719 353.332031 692.882812 352.15625 C 693.707031 349.550781 694.695312 346.945312 695.585938 344.339844 C 695.933594 343.324219 696.476562 342.476562 697.585938 341.746094 C 707.636719 335.144531 716.429688 327.328125 725.097656 319.398438 C 725.96875 318.609375 726.84375 317.808594 728.039062 317.410156 C 737.972656 314.089844 747.871094 310.695312 757.808594 307.488281 C 759.382812 306.984375 760.398438 306.277344 761.277344 305.050781 C 764.082031 301.203125 766.902344 297.332031 769.699219 293.492188 C 770.527344 292.335938 771.453125 291.726562 772.894531 291.484375 C 775.5 291.050781 778.121094 290.410156 780.726562 289.984375 C 782.34375 289.714844 783.539062 289.011719 784.71875 287.855469 C 788.800781 283.890625 792.898438 279.902344 796.980469 275.9375 C 798.058594 274.871094 799.167969 274.269531 800.621094 274.089844 C 804.125 273.664062 807.644531 273.140625 811.132812 272.742188 C 812.875 272.539062 814.441406 272.105469 816.023438 270.980469 C 819.742188 268.351562 823.578125 265.859375 827.320312 263.246094 C 828.609375 262.34375 829.882812 261.828125 831.363281 261.601562 C 835.632812 260.941406 839.90625 260.277344 844.183594 259.613281 C 848.46875 259.019531 852.757812 258.421875 857.039062 257.828125 C 858.542969 257.625 859.777344 257.117188 861.070312 256.253906 C 866.714844 252.511719 872.347656 248.683594 878.023438 245.011719 C 883.699219 241.332031 889.402344 237.714844 895.171875 234.203125 C 897.574219 232.765625 899.824219 231.019531 902.535156 230.066406 C 912.734375 226.421875 923.027344 223.226562 933.308594 220.382812 L 939.542969 218.683594 C 941.613281 218.117188 943.703125 217.628906 945.765625 217.042969 C 949.878906 215.828125 954.003906 214.785156 958.0625 213.34375 C 959.578125 212.773438 960.941406 212.191406 962.207031 211.269531 C 963.523438 210.328125 964.921875 209.503906 966.378906 208.796875 C 967.109375 208.453125 967.84375 208.105469 968.601562 207.847656 C 969.359375 207.597656 970.128906 207.375 970.90625 207.183594 C 972.460938 206.800781 974.039062 206.542969 975.625 206.417969 C 976.417969 206.355469 977.210938 206.316406 978 206.328125 C 978.796875 206.371094 979.582031 206.445312 980.371094 206.554688 C 984.167969 207.101562 987.855469 207.683594 991.476562 208.707031 C 993.261719 209.164062 995.050781 209.625 996.84375 210.082031 C 998.613281 210.578125 1000.367188 211.179688 1002.117188 211.679688 L 1004.816406 212.480469 C 1005.707031 212.757812 1006.597656 212.992188 1007.472656 213.355469 L 1012.648438 215.351562 L 1015.183594 216.347656 C 1016.015625 216.714844 1016.832031 217.128906 1017.652344 217.515625 L 1022.488281 219.84375 C 1022.859375 220.023438 1023.261719 220.308594 1023.777344 219.867188 C 1022.800781 218.585938 1021.324219 217.648438 1020 216.578125 C 1008.019531 206.84375 992.953125 199.011719 976.414062 193.292969 C 973.304688 192.234375 970.242188 192.394531 966.867188 193.402344 C 965.480469 193.796875 964.144531 194.328125 962.824219 194.863281 C 961.503906 195.402344 960.210938 195.964844 958.933594 196.546875 C 957.65625 197.136719 956.390625 197.710938 955.164062 198.359375 C 953.9375 199.03125 952.730469 199.714844 951.535156 200.402344 C 950.152344 201.199219 949.039062 201.429688 947.554688 201.085938 C 945.355469 200.550781 943.1875 200.164062 940.976562 199.738281 L 934.289062 198.519531 C 929.835938 197.8125 925.320312 197.171875 920.765625 196.558594 C 919.128906 196.363281 917.734375 196.585938 916.027344 197.527344 C 911.386719 200.011719 906.925781 202.703125 902.425781 205.300781 L 895.773438 209.304688 L 892.449219 211.285156 L 889.160156 213.296875 C 887.402344 214.386719 885.636719 215.476562 883.875 216.5625 C 882.125 217.65625 880.371094 218.742188 878.566406 219.722656 C 874.941406 221.671875 871.183594 223.292969 866.933594 224.015625 C 861.164062 224.996094 855.449219 226.792969 849.730469 227.457031 C 847.445312 227.730469 844.882812 228.289062 843.042969 227.292969 C 841.695312 226.5625 840.261719 226.863281 838.65625 227.585938 C 835.757812 228.890625 833.261719 230.71875 830.886719 232.648438 C 829.558594 233.71875 828.539062 234.148438 827.054688 233.710938 C 824.3125 232.914062 821.210938 232.992188 817.925781 233.5 C 812.46875 234.34375 807.382812 236.558594 802.421875 239.367188 C 795.941406 242.988281 789.480469 246.546875 782.480469 248.636719 C 779.660156 249.488281 777.675781 250.777344 776.070312 253.023438 C 773.335938 256.859375 770.433594 260.617188 766.8125 264.058594 C 764.304688 266.457031 761.511719 268.460938 758.1875 269.703125 C 751.664062 272.140625 745.0625 273.984375 738.460938 275.835938 C 731.378906 277.839844 724.324219 279.910156 717.238281 281.679688 C 712.042969 282.980469 708.003906 285.585938 704.445312 289.410156 C 701.832031 292.253906 699.167969 295.070312 696.65625 297.96875 C 694.292969 300.695312 691.667969 303.023438 688.140625 304.644531 C 684.050781 306.53125 680.097656 308.820312 675.996094 310.660156 C 670.46875 313.152344 665.511719 316.0625 662.296875 321.027344 C 661.554688 322.171875 660.398438 323.199219 659.414062 324.273438 C 652.253906 332.082031 644.394531 338.960938 634.304688 343.921875 C 619.703125 351.019531 605.113281 358.117188 590.511719 365.214844 C 581.832031 369.4375 582.804688 367.738281 578.570312 376.671875 C 576.246094 381.570312 573.621094 386.292969 568.976562 390.421875 C 567.515625 391.734375 566.394531 393.316406 565.136719 394.78125 C 562.132812 398.28125 558.980469 401.621094 554.371094 403.71875 C 552.972656 404.351562 551.683594 405.347656 550.417969 406.265625 C 546.34375 409.183594 542.605469 412.449219 538.765625 415.585938 C 535.914062 417.921875 533.589844 420.445312 531.742188 423.34375 C 530.015625 426.058594 527.914062 428.667969 526.015625 431.339844 C 523.382812 435.039062 520.363281 438.441406 516.933594 441.511719 C 513.480469 444.554688 509.625 447.292969 505.339844 449.730469 L 494.320312 456.125 L 488.796875 459.304688 C 486.9375 460.332031 485.070312 461.34375 483.1875 462.332031 C 480.253906 463.871094 479.921875 464.609375 481.265625 466.609375 C 482.332031 468.195312 483.699219 469.601562 484.480469 471.363281 C 485.6875 474.082031 484.675781 476.167969 480.953125 477.9375 C 474.832031 480.847656 469.886719 484.925781 465.367188 489.464844 C 457.644531 497.070312 450.53125 505.070312 442.757812 512.761719 C 433.515625 521.71875 424.566406 530.863281 415.386719 539.992188 L 415.296875 540.699219 C 416.308594 540.027344 417.351562 539.386719 418.328125 538.675781 C 425.382812 533.539062 432.257812 528.25 439.230469 523.089844 C 442.722656 520.519531 446.214844 517.949219 449.722656 515.371094 C 453.25 512.824219 456.839844 510.339844 460.523438 507.960938 C 464.097656 505.636719 467.570312 503.160156 471.09375 500.738281 Z M 471.09375 500.738281 " fill-opacity="1" fill-rule="nonzero"/></g></g></g><g clip-path="url(#0d61a1b405)"><g clip-path="url(#11bef559a0)"><g clip-path="url(#09baa9464d)"><path fill="#ff7f00" d="M 1016.542969 323.550781 C 1014.714844 323.058594 1012.921875 323.015625 1011.339844 322.972656 C 1010.878906 322.960938 1010.417969 322.953125 1009.960938 322.925781 L 959.0625 320.128906 C 954.964844 319.894531 951.128906 320.941406 947.324219 323.332031 C 943.070312 326.003906 938.863281 329.152344 933.675781 333.535156 C 933.585938 333.613281 933.511719 333.664062 933.464844 333.699219 C 927.996094 333.3125 922.4375 332.972656 917.066406 332.640625 C 913.757812 332.4375 910.460938 332.234375 907.160156 332.015625 C 904.425781 331.835938 902.0625 332.476562 899.707031 334.019531 L 899.28125 334.296875 C 891.246094 339.585938 882.933594 345.050781 874.621094 350.210938 C 873.648438 350.816406 872.683594 351.433594 871.714844 352.054688 C 866.136719 355.617188 860.867188 358.980469 854.675781 359.886719 C 852.265625 360.242188 849.867188 360.710938 847.546875 361.167969 C 844.15625 361.835938 840.949219 362.464844 837.800781 362.734375 C 837.441406 362.765625 837.078125 362.804688 836.710938 362.84375 C 835.875 362.933594 834.492188 363.074219 833.996094 362.964844 C 830.265625 360.839844 826.59375 362.371094 825.382812 362.878906 C 821.863281 364.347656 818.949219 366.421875 816.550781 368.269531 C 813.570312 367.378906 810.203125 367.175781 806.03125 367.628906 C 800.503906 368.238281 795.011719 370.046875 788.75 373.308594 C 781.789062 376.9375 775.886719 379.664062 769.699219 381.191406 C 765.730469 382.171875 762.796875 384.007812 760.472656 386.964844 C 757.902344 390.25 755.03125 393.710938 751.4375 396.808594 C 749.046875 398.878906 746.71875 400.253906 744.316406 401.011719 C 738.015625 403 731.460938 404.46875 725.125 405.890625 L 723.164062 406.332031 C 716.691406 407.78125 709.996094 409.277344 703.488281 410.578125 C 697.570312 411.742188 692.46875 414.472656 687.890625 418.933594 C 687.179688 419.628906 686.460938 420.320312 685.742188 421.015625 C 683.695312 422.996094 681.578125 425.042969 679.546875 427.140625 C 677.160156 429.609375 674.949219 431.167969 672.359375 432.203125 C 670.28125 433.046875 668.242188 433.980469 666.273438 434.886719 C 664.109375 435.878906 662.066406 436.8125 659.996094 437.632812 C 654.335938 439.859375 647.953125 442.957031 643.578125 449.027344 C 643.300781 449.414062 642.699219 449.96875 642.117188 450.507812 C 641.761719 450.835938 641.40625 451.171875 641.085938 451.492188 C 634.816406 457.625 626.992188 464.523438 616.507812 469.148438 L 594.042969 479.070312 L 571.707031 489.246094 C 570.402344 489.847656 569.316406 490.320312 568.402344 490.71875 C 561.90625 493.550781 561.171875 494.621094 557.382812 502.136719 L 557.054688 502.789062 C 554.550781 507.855469 552.226562 511.664062 548.390625 515.019531 C 547.023438 516.214844 545.949219 517.523438 545.003906 518.679688 C 544.675781 519.074219 544.351562 519.476562 544.015625 519.863281 C 541.347656 522.9375 538.636719 525.847656 534.835938 527.570312 C 533.179688 528.320312 531.777344 529.335938 530.539062 530.226562 L 530.054688 530.578125 C 526.460938 533.117188 523.183594 535.933594 520.015625 538.652344 C 519.371094 539.207031 518.71875 539.765625 518.066406 540.324219 C 514.765625 543.144531 512.179688 546.128906 510.167969 549.433594 C 509.179688 551.046875 508.039062 552.65625 506.832031 554.351562 C 506.121094 555.351562 505.410156 556.355469 504.726562 557.359375 C 502.378906 560.816406 499.644531 564.023438 496.605469 566.890625 C 493.175781 570.109375 489.757812 572.777344 486.144531 575.0625 C 483.5 576.746094 480.875 578.453125 478.253906 580.164062 C 473.875 583.015625 469.339844 585.96875 464.828125 588.707031 C 463.265625 589.65625 460.644531 591.25 460.074219 594.328125 C 459.535156 597.234375 461.234375 599.429688 461.871094 600.257812 C 462.355469 600.886719 462.839844 601.441406 463.3125 601.980469 C 463.859375 602.601562 464.378906 603.195312 464.726562 603.726562 C 464.515625 603.890625 464.21875 604.089844 463.816406 604.324219 C 458.175781 607.582031 453.1875 611.9375 448.128906 618.023438 C 444.75 622.089844 441.605469 626.144531 438.140625 630.636719 L 433.257812 636.945312 C 431.449219 639.34375 429.925781 641.320312 428.460938 643.179688 C 422.753906 650.398438 417.269531 657.796875 411.960938 664.949219 C 409.933594 667.683594 407.90625 670.414062 405.871094 673.132812 L 404.835938 674.515625 L 405.308594 687.28125 L 413.054688 680.425781 C 413.3125 680.195312 413.578125 679.96875 413.839844 679.742188 C 414.492188 679.183594 415.160156 678.601562 415.828125 677.957031 C 419.261719 674.628906 422.691406 671.210938 426.003906 667.910156 C 428.554688 665.367188 431.109375 662.816406 433.6875 660.292969 C 437.097656 656.949219 439.960938 654.214844 442.722656 651.671875 C 445.808594 648.792969 449.191406 646.039062 452.101562 643.703125 C 454.464844 641.820312 456.757812 639.863281 458.980469 637.972656 C 463.082031 634.476562 466.957031 631.167969 471.292969 628.253906 C 477.84375 623.773438 484.261719 619.402344 490.78125 615.226562 C 493.636719 613.394531 497.167969 610.726562 499.128906 606.257812 C 499.511719 605.394531 500.085938 604.429688 500.691406 603.410156 C 501.070312 602.773438 501.445312 602.140625 501.796875 601.503906 C 501.808594 601.496094 501.820312 601.496094 501.828125 601.488281 C 504.570312 600.546875 507.324219 599.546875 509.984375 598.578125 L 513.15625 597.425781 C 515.210938 596.710938 517.402344 595.804688 519.496094 594.082031 L 535.660156 580.851562 L 544.421875 573.714844 C 546.855469 571.734375 549.371094 569.683594 551.882812 567.726562 C 553.515625 566.4375 554.699219 564.960938 555.5 563.242188 L 561.265625 551.058594 C 563.671875 550.402344 566.117188 549.6875 568.546875 548.9375 C 568.878906 548.839844 569.210938 548.738281 569.539062 548.648438 C 572.105469 547.898438 575.617188 546.875 578.472656 543.324219 C 580.734375 540.476562 583.234375 537.785156 585.882812 534.929688 C 587.394531 533.296875 588.964844 531.609375 590.46875 529.898438 C 591.191406 529.082031 591.949219 528.59375 593.167969 528.144531 C 603.09375 524.511719 611.714844 520.972656 619.484375 517.339844 L 620.257812 516.992188 C 623.148438 515.679688 626.429688 514.195312 629.21875 511.804688 C 633.953125 507.75 639.527344 504.539062 644.832031 501.605469 C 645.289062 501.347656 645.757812 501.085938 646.214844 500.828125 C 648.855469 499.34375 651.351562 497.941406 653.753906 497.324219 C 658.035156 496.246094 662.332031 494.996094 666.484375 493.777344 C 669.417969 492.921875 672.457031 492.035156 675.410156 491.234375 C 678.308594 490.453125 680.257812 488.742188 681.214844 486.148438 C 681.78125 484.617188 682.40625 483.097656 683.0625 481.480469 C 683.457031 480.519531 683.851562 479.5625 684.234375 478.601562 C 684.238281 478.578125 684.25 478.5625 684.257812 478.542969 C 684.273438 478.535156 684.292969 478.519531 684.316406 478.503906 C 695.140625 472.019531 704.71875 464.460938 713.476562 457.242188 C 713.878906 456.914062 714.480469 456.417969 714.6875 456.359375 L 729.746094 452.144531 C 734.527344 450.820312 739.421875 449.523438 744.15625 448.273438 L 744.792969 448.101562 C 747.40625 447.414062 749.363281 446.164062 750.929688 444.195312 L 759.929688 433.066406 C 759.933594 433.058594 759.941406 433.050781 759.945312 433.042969 C 761.316406 432.886719 762.671875 432.679688 763.988281 432.484375 C 765.316406 432.285156 766.566406 432.09375 767.808594 431.953125 C 770.378906 431.660156 772.53125 430.667969 774.574219 428.839844 L 787.371094 417.527344 C 787.824219 417.125 787.96875 417.113281 788.175781 417.101562 C 789.730469 416.988281 791.292969 416.855469 792.851562 416.722656 C 794.796875 416.558594 796.746094 416.394531 798.683594 416.269531 C 801.484375 416.09375 803.804688 415.34375 805.992188 413.90625 C 808.195312 412.457031 810.511719 411.023438 812.742188 409.636719 C 814.332031 408.652344 815.917969 407.671875 817.492188 406.664062 C 818.191406 406.21875 818.75 406.015625 819.503906 405.933594 L 845.238281 403.039062 C 847.4375 402.800781 849.394531 402.105469 851.378906 400.851562 C 861.558594 394.476562 872.546875 387.660156 885.953125 379.40625 C 886.625 378.992188 887.285156 378.558594 887.945312 378.125 C 889.503906 377.105469 890.980469 376.140625 892.472656 375.582031 C 895.554688 374.429688 898.636719 373.277344 901.71875 372.132812 C 908.738281 369.519531 915.992188 366.816406 923.128906 364.097656 C 932.058594 360.6875 940.097656 357.503906 947.984375 353.121094 C 949.933594 352.035156 951.570312 350.765625 952.988281 349.234375 C 956.761719 345.164062 961.839844 342.363281 967.296875 341.335938 C 971.457031 340.554688 975.753906 339.964844 979.910156 339.394531 C 983.390625 338.914062 986.988281 338.421875 990.566406 337.804688 C 995.902344 336.894531 1001.34375 336.023438 1006.597656 335.1875 C 1009.316406 334.75 1012.039062 334.3125 1014.816406 333.863281 C 1018.09375 333.390625 1019.371094 331.253906 1019.835938 330.019531 L 1021.742188 324.96875 Z M 1016.542969 323.550781 " fill-opacity="1" fill-rule="nonzero"/></g></g></g><g clip-path="url(#966f7d71c4)"><g clip-path="url(#2ddc61e28d)"><g clip-path="url(#684086c4de)"><path fill="#ff7f00" d="M 980.363281 422.464844 C 966.578125 418.144531 952.085938 414.78125 937.242188 411.992188 C 934.453125 411.480469 932.121094 412.105469 929.878906 413.722656 C 926.226562 416.417969 923.03125 419.578125 920.054688 422.929688 C 919.199219 423.902344 918.363281 424.253906 917.0625 424.042969 L 911.261719 423.148438 L 905.453125 422.359375 C 901.5625 421.835938 897.652344 421.34375 893.753906 420.890625 C 892.335938 420.714844 891.238281 420.976562 890.082031 421.972656 L 880.8125 430.097656 C 877.761719 432.820312 874.65625 435.488281 871.570312 438.132812 C 866.570312 442.375 862.015625 447.269531 855 448.410156 C 850.242188 449.1875 845.609375 450.71875 840.808594 451.152344 C 838.882812 451.320312 836.773438 451.773438 834.957031 450.664062 C 833.617188 449.851562 832.449219 450.089844 831.222656 450.75 C 829.015625 451.9375 827.265625 453.695312 825.660156 455.550781 C 824.765625 456.585938 823.953125 456.9375 822.570312 456.40625 C 820.003906 455.414062 817.328125 455.300781 814.585938 455.605469 C 810.035156 456.109375 806.113281 458.035156 802.425781 460.574219 C 797.632812 463.871094 792.703125 466.933594 787.054688 468.515625 C 784.78125 469.15625 783.324219 470.3125 782.390625 472.472656 C 780.792969 476.164062 779.050781 479.769531 776.570312 482.960938 C 774.847656 485.175781 772.796875 486.957031 770.136719 487.914062 C 764.914062 489.792969 759.515625 491.0625 754.121094 492.285156 C 748.324219 493.609375 742.527344 494.953125 736.6875 495.996094 C 732.40625 496.777344 729.355469 498.945312 726.945312 502.453125 C 725.160156 505.042969 723.316406 507.597656 721.617188 510.261719 C 720.019531 512.761719 718.121094 514.835938 715.320312 516.070312 C 712.058594 517.484375 708.996094 519.328125 705.722656 520.691406 C 701.300781 522.53125 697.445312 524.859375 695.421875 529.53125 C 694.957031 530.609375 694.105469 531.496094 693.410156 532.460938 C 688.367188 539.449219 682.507812 545.460938 674.429688 549.117188 L 656.820312 556.847656 C 650.960938 559.433594 645.046875 561.84375 639.195312 564.394531 C 632.199219 567.398438 632.863281 565.835938 630.265625 574.332031 C 628.832031 578.980469 627.097656 583.402344 623.539062 586.898438 C 622.410156 588.007812 621.628906 589.46875 620.699219 590.785156 C 618.496094 593.929688 616.148438 596.902344 612.355469 598.265625 C 611.207031 598.683594 610.199219 599.496094 609.191406 600.222656 C 605.96875 602.550781 603.046875 605.257812 600.0625 607.894531 C 597.839844 609.851562 596.101562 612.113281 594.765625 614.773438 C 593.527344 617.277344 591.953125 619.613281 590.550781 622.050781 C 588.605469 625.425781 586.296875 628.417969 583.601562 631.019531 C 582.253906 632.324219 580.808594 633.53125 579.269531 634.640625 C 577.710938 635.722656 576.058594 636.703125 574.308594 637.59375 C 568.269531 640.648438 562.359375 643.96875 556.21875 646.832031 C 553.8125 647.910156 553.578125 648.617188 554.878906 650.949219 C 555.910156 652.792969 557.191406 654.503906 557.988281 656.480469 C 559.222656 659.53125 558.496094 661.523438 555.40625 662.710938 C 550.324219 664.65625 546.328125 668.003906 542.734375 671.976562 C 536.605469 678.636719 530.914062 685.679688 524.636719 692.378906 L 521.867188 695.347656 L 519.078125 698.277344 L 513.535156 704.207031 C 509.847656 708.1875 506.15625 712.203125 502.394531 716.1875 L 502.34375 716.917969 C 503.183594 716.390625 504.058594 715.902344 504.867188 715.328125 C 510.710938 711.171875 516.390625 706.828125 522.132812 702.648438 C 525.023438 700.589844 527.84375 698.398438 530.761719 696.375 C 533.667969 694.335938 536.628906 692.375 539.675781 690.535156 C 542.644531 688.71875 545.535156 686.796875 548.394531 684.8125 C 551.261719 682.84375 554.167969 680.957031 557.300781 679.40625 C 563.128906 676.496094 568.902344 673.472656 574.65625 670.460938 C 577.214844 669.152344 579.214844 667.546875 580.277344 664.808594 C 580.9375 663.117188 581.957031 661.570312 582.761719 659.9375 C 583.238281 658.972656 583.945312 658.523438 585.023438 658.351562 C 588.335938 657.835938 591.640625 657.226562 594.902344 656.535156 C 596.382812 656.234375 597.78125 655.847656 599.054688 654.835938 L 612.597656 644.105469 L 625.957031 633.21875 C 626.792969 632.535156 627.335938 631.742188 627.667969 630.730469 C 629 626.644531 630.390625 622.625 631.691406 618.515625 C 631.933594 617.773438 632.105469 617.035156 633.113281 616.878906 C 635.429688 616.527344 637.738281 616.109375 640.039062 615.644531 C 642.339844 615.171875 644.636719 615.078125 646.226562 612.625 C 647.621094 610.476562 649.128906 608.417969 650.667969 606.375 C 652.1875 604.3125 653.71875 602.25 655.171875 600.140625 C 656.121094 598.757812 657.269531 597.992188 658.839844 597.5 C 666.0625 595.25 673.242188 592.769531 680.101562 589.539062 C 682.5 588.421875 685.015625 587.371094 686.839844 585.417969 C 690.511719 581.496094 694.949219 578.65625 699.4375 575.851562 C 701.988281 574.273438 704.519531 572.476562 707.472656 571.851562 C 713.476562 570.585938 719.328125 568.730469 725.25 567.203125 C 726.285156 566.941406 726.886719 566.40625 727.035156 565.25 C 727.367188 562.679688 727.839844 560.128906 728.222656 557.570312 C 728.371094 556.578125 728.722656 555.773438 729.585938 555.15625 C 737.425781 549.601562 743.882812 542.558594 750.191406 535.402344 C 750.820312 534.683594 751.453125 533.960938 752.433594 533.675781 C 760.59375 531.289062 768.757812 528.902344 776.914062 526.519531 C 778.210938 526.144531 778.96875 525.515625 779.523438 524.335938 C 781.246094 520.636719 783.066406 516.964844 784.773438 513.257812 C 785.277344 512.148438 785.980469 511.609375 787.199219 511.488281 C 789.410156 511.273438 791.597656 510.847656 793.8125 510.636719 C 795.1875 510.507812 796.105469 509.890625 796.910156 508.792969 C 799.703125 505.039062 802.5 501.28125 805.292969 497.523438 C 806.027344 496.515625 806.875 495.980469 808.117188 495.910156 C 811.105469 495.734375 814.09375 495.460938 817.085938 495.308594 C 818.585938 495.238281 819.847656 494.871094 820.996094 493.820312 C 823.695312 491.355469 826.519531 489.027344 829.238281 486.578125 C 830.175781 485.730469 831.175781 485.28125 832.429688 485.132812 C 839.640625 484.285156 846.855469 483.433594 854.066406 482.582031 C 855.332031 482.441406 856.296875 481.96875 857.230469 481.148438 C 865.382812 473.933594 873.546875 466.777344 881.84375 459.777344 C 883.570312 458.332031 885.09375 456.589844 887.203125 455.632812 C 895.105469 451.996094 903.054688 448.515625 910.976562 445.074219 C 914.179688 443.679688 917.390625 442.324219 920.5 440.769531 C 923.632812 439.265625 926.679688 437.617188 929.59375 435.679688 C 930.691406 434.96875 931.589844 434.097656 932.324219 432.96875 C 935.34375 428.246094 940.0625 425.460938 945.308594 424.90625 C 948.507812 424.625 951.714844 424.53125 954.902344 424.460938 C 958.105469 424.449219 961.296875 424.480469 964.449219 424.359375 C 967.722656 424.277344 970.992188 424.300781 974.222656 424.308594 C 977.460938 424.355469 980.691406 424.5 983.878906 424.59375 C 984.253906 424.605469 984.703125 424.710938 984.871094 424.054688 C 983.46875 423.214844 981.886719 422.941406 980.363281 422.464844 Z M 980.363281 422.464844 " fill-opacity="1" fill-rule="nonzero"/></g></g></g><g clip-path="url(#8e7bf75a6b)"><path fill="#165091" d="M 206.789062 103.949219 C 205.546875 103.949219 204.539062 104.960938 204.539062 106.199219 L 204.539062 135.449219 L 198.238281 135.449219 C 115.84375 135.449219 56.039062 196.957031 56.039062 281.699219 C 56.039062 362.339844 126.695312 427.949219 213.539062 427.949219 C 300.386719 427.949219 371.039062 362.339844 371.039062 281.699219 C 371.039062 236.835938 347.71875 190.910156 311.328125 163.207031 C 328.75 156.230469 345.34375 144.800781 361.378906 128.769531 C 361.867188 128.285156 362.101562 127.605469 362.023438 126.917969 C 361.941406 126.226562 361.546875 125.617188 360.957031 125.253906 C 337.8125 111.121094 315.355469 103.949219 294.1875 103.949219 C 262.929688 104.359375 238.015625 118.9375 222.539062 131.125 L 222.539062 106.199219 C 222.539062 104.960938 221.53125 103.949219 220.289062 103.949219 Z M 209.039062 108.449219 L 218.039062 108.449219 L 218.039062 134.519531 C 218.039062 134.605469 218.082031 134.675781 218.09375 134.757812 C 214.28125 138.011719 211.207031 140.953125 209.039062 143.175781 Z M 294.222656 108.449219 C 313.058594 108.449219 333.082031 114.503906 353.796875 126.320312 C 346.71875 126.027344 339.652344 125.855469 332.773438 125.914062 C 331.53125 125.925781 330.53125 126.945312 330.539062 128.183594 C 330.546875 129.425781 331.628906 130.460938 332.808594 130.414062 C 339.367188 130.375 346.050781 130.523438 352.757812 130.785156 C 325.636719 155.902344 296.949219 167.800781 265.15625 166.90625 C 239.089844 165.886719 220.046875 155.265625 212.203125 150.066406 C 221.382812 146.386719 259.089844 132.769531 319.367188 130.679688 C 320.609375 130.636719 321.574219 129.601562 321.53125 128.359375 C 321.484375 127.117188 320.542969 126.082031 319.210938 126.1875 C 264.019531 128.105469 227.457031 139.597656 213.980469 144.582031 C 225.527344 133.199219 254.691406 108.972656 294.222656 108.449219 Z M 198.238281 144.449219 L 204.539062 144.449219 L 204.539062 148.949219 C 204.539062 148.988281 204.5625 149.019531 204.566406 149.054688 C 204.574219 149.214844 204.613281 149.359375 204.652344 149.511719 C 204.691406 149.648438 204.710938 149.789062 204.769531 149.910156 C 204.820312 150.027344 204.910156 150.125 204.988281 150.234375 C 205.082031 150.363281 205.167969 150.496094 205.285156 150.601562 C 205.3125 150.625 205.320312 150.660156 205.347656 150.683594 C 206.292969 151.46875 228.941406 169.984375 265.015625 171.398438 C 266.125 171.425781 267.234375 171.441406 268.332031 171.441406 C 279.589844 171.441406 290.460938 169.867188 301.027344 166.75 L 302.222656 167.59375 C 338.558594 193.269531 362.039062 238.058594 362.039062 281.699219 C 362.039062 357.382812 295.421875 418.949219 213.539062 418.949219 C 131.65625 418.949219 65.039062 357.382812 65.039062 281.699219 C 65.039062 200.890625 119.8125 144.449219 198.238281 144.449219 Z M 314.789062 207.449219 C 308.589844 207.449219 303.539062 212.5 303.539062 218.699219 C 303.539062 224.902344 308.589844 229.949219 314.789062 229.949219 C 320.992188 229.949219 326.039062 224.902344 326.039062 218.699219 C 326.039062 212.5 320.992188 207.449219 314.789062 207.449219 Z M 314.789062 211.949219 C 318.511719 211.949219 321.539062 214.980469 321.539062 218.699219 C 321.539062 222.421875 318.511719 225.449219 314.789062 225.449219 C 311.066406 225.449219 308.039062 222.421875 308.039062 218.699219 C 308.039062 214.980469 311.066406 211.949219 314.789062 211.949219 Z M 287.789062 225.449219 C 281.589844 225.449219 276.539062 230.5 276.539062 236.699219 C 276.539062 242.902344 281.589844 247.949219 287.789062 247.949219 C 293.992188 247.949219 299.039062 242.902344 299.039062 236.699219 C 299.039062 230.5 293.992188 225.449219 287.789062 225.449219 Z M 287.789062 229.949219 C 291.511719 229.949219 294.539062 232.980469 294.539062 236.699219 C 294.539062 240.421875 291.511719 243.449219 287.789062 243.449219 C 284.066406 243.449219 281.039062 240.421875 281.039062 236.699219 C 281.039062 232.980469 284.066406 229.949219 287.789062 229.949219 Z M 319.289062 238.949219 C 313.089844 238.949219 308.039062 244 308.039062 250.199219 C 308.039062 256.402344 313.089844 261.449219 319.289062 261.449219 C 325.492188 261.449219 330.539062 256.402344 330.539062 250.199219 C 330.539062 244 325.492188 238.949219 319.289062 238.949219 Z M 319.289062 243.449219 C 323.011719 243.449219 326.039062 246.480469 326.039062 250.199219 C 326.039062 253.921875 323.011719 256.949219 319.289062 256.949219 C 315.566406 256.949219 312.539062 253.921875 312.539062 250.199219 C 312.539062 246.480469 315.566406 243.449219 319.289062 243.449219 Z M 85.289062 279.449219 C 84.046875 279.449219 83.039062 280.460938 83.039062 281.699219 C 83.039062 284.769531 83.160156 287.863281 83.410156 290.886719 C 83.503906 292.058594 84.488281 292.949219 85.648438 292.949219 C 85.714844 292.949219 85.777344 292.945312 85.84375 292.941406 C 87.082031 292.839844 88 291.757812 87.898438 290.515625 C 87.65625 287.613281 87.539062 284.648438 87.539062 281.699219 C 87.539062 280.460938 86.53125 279.449219 85.289062 279.449219 Z M 86.398438 297.484375 C 85.171875 297.6875 84.34375 298.847656 84.550781 300.070312 C 85.0625 303.160156 85.714844 306.246094 86.484375 309.253906 C 86.746094 310.273438 87.664062 310.949219 88.664062 310.949219 C 88.847656 310.949219 89.039062 310.929688 89.226562 310.878906 C 90.433594 310.574219 91.15625 309.351562 90.84375 308.148438 C 90.105469 305.261719 89.484375 302.292969 88.988281 299.332031 C 88.789062 298.109375 87.628906 297.269531 86.398438 297.484375 Z M 91.53125 315.449219 C 91.238281 315.433594 90.9375 315.46875 90.640625 315.574219 C 89.46875 315.984375 88.851562 317.265625 89.261719 318.4375 C 96 337.671875 108.125 355.136719 124.332031 368.941406 C 148.5625 389.585938 180.238281 400.949219 213.539062 400.949219 C 214.78125 400.949219 215.789062 399.941406 215.789062 398.699219 C 215.789062 397.460938 214.78125 396.449219 213.539062 396.449219 C 181.304688 396.449219 150.660156 385.472656 127.25 365.523438 C 111.652344 352.230469 99.976562 335.433594 93.507812 316.953125 C 93.203125 316.078125 92.40625 315.507812 91.53125 315.449219 Z M 91.53125 315.449219 " fill-opacity="1" fill-rule="nonzero"/></g></svg>