<svg xmlns="http://www.w3.org/2000/svg" xmlns:xlink="http://www.w3.org/1999/xlink" width="1600" zoomAndPan="magnify" viewBox="0 0 1200 599.999999" height="800" preserveAspectRatio="xMidYMid meet" version="1.0"><defs><g/><clipPath id="438d00fd38"><path d="M 64.363281 94.386719 L 350 94.386719 L 350 563.886719 L 64.363281 563.886719 Z M 64.363281 94.386719 " clip-rule="nonzero"/></clipPath></defs><g clip-path="url(#438d00fd38)"><path fill="#ffffff" d="M 64.363281 214.714844 L 272.394531 94.605469 L 272.394531 120.757812 L 85.382812 228.726562 L 85.382812 500.242188 L 64.363281 512.378906 Z M 141.710938 266.277344 L 349.742188 146.171875 L 349.742188 224.390625 L 209.449219 305.386719 L 209.449219 336.890625 L 349.742188 255.890625 L 349.742188 334.113281 L 209.449219 415.109375 L 209.449219 446.613281 L 349.742188 365.613281 L 349.742188 443.835938 L 141.710938 563.941406 Z M 141.710938 266.277344 " fill-opacity="1" fill-rule="evenodd"/></g><g fill="#ffffff" fill-opacity="1"><g transform="translate(394.514691, 439.320963)"><g><path d="M 92.953125 -193.054688 C 60.605469 -193.054688 28.941406 -174.328125 28.941406 -138.917969 C 29.28125 -78.3125 120.871094 -98.058594 120.871094 -54.136719 C 120.871094 -33.707031 98.398438 -23.832031 80.015625 -23.832031 C 64.351562 -23.832031 45.964844 -32.003906 33.367188 -41.539062 L 20.429688 -15.664062 C 37.453125 -3.40625 63.671875 3.746094 84.441406 3.746094 C 119.167969 3.746094 150.492188 -16.683594 150.492188 -53.796875 C 150.492188 -118.828125 58.222656 -102.484375 58.222656 -138.917969 C 58.222656 -156.964844 81.714844 -166.15625 97.378906 -166.15625 C 110.316406 -166.15625 126.660156 -161.730469 136.535156 -153.21875 L 146.75 -175.007812 C 135.171875 -187.949219 109.976562 -193.054688 92.953125 -193.054688 Z M 92.953125 -193.054688 "/></g></g></g><g fill="#ffffff" fill-opacity="1"><g transform="translate(553.177858, 439.320963)"><g><path d="M 103.847656 -193.054688 C 84.101562 -193.054688 68.097656 -185.90625 53.457031 -173.304688 L 53.457031 -188.96875 L 24.515625 -188.96875 L 24.515625 66.394531 L 53.457031 66.394531 L 53.457031 -16.683594 C 67.074219 -2.722656 86.824219 3.746094 105.890625 3.746094 C 159.347656 3.746094 185.5625 -43.242188 185.5625 -91.929688 C 185.5625 -139.257812 156.964844 -193.054688 103.847656 -193.054688 Z M 96.699219 -164.453125 C 136.535156 -164.453125 154.578125 -126.660156 154.578125 -91.589844 C 154.578125 -57.882812 133.808594 -23.492188 96.699219 -23.492188 C 83.078125 -23.492188 61.289062 -31.664062 53.457031 -43.242188 L 53.457031 -143.003906 C 63.332031 -155.601562 81.035156 -164.453125 96.699219 -164.453125 Z M 96.699219 -164.453125 "/></g></g></g><g fill="#ffffff" fill-opacity="1"><g transform="translate(746.569969, 439.320963)"><g><path d="M 13.621094 -257.40625 L 13.621094 -79.671875 C 13.621094 -44.601562 18.726562 4.085938 64.691406 4.085938 C 77.289062 4.085938 90.226562 1.019531 100.785156 -6.128906 L 90.226562 -29.621094 C 84.101562 -25.875 76.949219 -23.492188 69.800781 -23.492188 C 45.964844 -23.492188 43.921875 -54.816406 43.921875 -72.523438 L 43.921875 -257.40625 Z M 13.621094 -257.40625 "/></g></g></g><g fill="#ffffff" fill-opacity="1"><g transform="translate(848.713474, 439.320963)"><g><path d="M 65.714844 -228.464844 C 65.714844 -238.679688 56.859375 -246.851562 46.644531 -246.851562 C 36.773438 -246.851562 27.917969 -238.679688 27.917969 -228.464844 C 27.917969 -217.910156 36.773438 -210.078125 46.644531 -210.078125 C 56.859375 -210.078125 65.714844 -218.589844 65.714844 -228.464844 Z M 61.289062 -188.96875 L 32.003906 -188.96875 L 32.003906 0 L 61.289062 0 Z M 61.289062 -188.96875 "/></g></g></g><g fill="#ffffff" fill-opacity="1"><g transform="translate(930.087757, 439.320963)"><g><path d="M 108.613281 -193.054688 C 86.824219 -193.054688 64.691406 -178.074219 57.203125 -157.304688 L 57.203125 -188.96875 L 27.917969 -188.96875 L 27.917969 0 L 57.203125 0 L 57.203125 -94.65625 C 57.203125 -121.554688 64.691406 -161.390625 102.144531 -161.390625 C 136.875 -161.390625 142.324219 -128.023438 142.324219 -98.398438 L 142.324219 0 L 171.261719 0 L 171.261719 -116.785156 C 171.261719 -159.007812 155.261719 -193.054688 108.613281 -193.054688 Z M 108.613281 -193.054688 "/></g></g></g></svg>