<svg xmlns="http://www.w3.org/2000/svg" xmlns:xlink="http://www.w3.org/1999/xlink" width="1600" zoomAndPan="magnify" viewBox="0 0 1200 599.999999" height="800" preserveAspectRatio="xMidYMid meet" version="1.0"><defs><g/><clipPath id="aea8d4189b"><path d="M 60 122.347656 L 275.847656 122.347656 L 275.847656 477.96875 L 60 477.96875 Z M 60 122.347656 " clip-rule="nonzero"/></clipPath></defs><g clip-path="url(#aea8d4189b)"><path fill="#165091" d="M 60 213.359375 L 217.332031 122.523438 L 217.332031 142.300781 L 75.898438 223.957031 L 75.898438 429.304688 L 60 438.484375 Z M 118.496094 252.355469 L 275.828125 161.519531 L 275.828125 220.675781 L 169.726562 281.933594 L 169.726562 305.761719 L 275.828125 244.503906 L 275.828125 303.660156 L 169.726562 364.917969 L 169.726562 388.742188 L 275.828125 327.484375 L 275.828125 386.640625 L 118.496094 477.476562 Z M 118.496094 252.355469 " fill-opacity="1" fill-rule="evenodd"/></g><g fill="#a2a9ad" fill-opacity="1"><g transform="translate(309.808581, 389.78721)"><g><path d="M 61.609375 -127.960938 C 40.171875 -127.960938 19.183594 -115.550781 19.183594 -92.078125 C 19.410156 -51.90625 80.117188 -64.996094 80.117188 -35.882812 C 80.117188 -22.34375 65.222656 -15.796875 53.035156 -15.796875 C 42.652344 -15.796875 30.46875 -21.214844 22.117188 -27.535156 L 13.539062 -10.382812 C 24.824219 -2.257812 42.203125 2.484375 55.96875 2.484375 C 78.988281 2.484375 99.75 -11.058594 99.75 -35.65625 C 99.75 -78.761719 38.589844 -67.929688 38.589844 -92.078125 C 38.589844 -104.039062 54.164062 -110.132812 64.546875 -110.132812 C 73.121094 -110.132812 83.953125 -107.199219 90.5 -101.558594 L 97.269531 -116 C 89.597656 -124.578125 72.894531 -127.960938 61.609375 -127.960938 Z M 61.609375 -127.960938 "/></g></g></g><g fill="#a2a9ad" fill-opacity="1"><g transform="translate(414.974702, 389.78721)"><g><path d="M 68.832031 -127.960938 C 55.742188 -127.960938 45.136719 -123.222656 35.433594 -114.871094 L 35.433594 -125.253906 L 16.25 -125.253906 L 16.25 44.007812 L 35.433594 44.007812 L 35.433594 -11.058594 C 44.460938 -1.804688 57.550781 2.484375 70.1875 2.484375 C 105.621094 2.484375 122.996094 -28.660156 122.996094 -60.933594 C 122.996094 -92.304688 104.039062 -127.960938 68.832031 -127.960938 Z M 64.09375 -109.003906 C 90.5 -109.003906 102.460938 -83.953125 102.460938 -60.707031 C 102.460938 -38.367188 88.691406 -15.570312 64.09375 -15.570312 C 55.066406 -15.570312 40.621094 -20.988281 35.433594 -28.660156 L 35.433594 -94.785156 C 41.976562 -103.136719 53.710938 -109.003906 64.09375 -109.003906 Z M 64.09375 -109.003906 "/></g></g></g><g fill="#a2a9ad" fill-opacity="1"><g transform="translate(543.160094, 389.78721)"><g><path d="M 9.027344 -170.617188 L 9.027344 -52.808594 C 9.027344 -29.5625 12.414062 2.707031 42.878906 2.707031 C 51.230469 2.707031 59.804688 0.675781 66.800781 -4.0625 L 59.804688 -19.632812 C 55.742188 -17.152344 51.003906 -15.570312 46.265625 -15.570312 C 30.46875 -15.570312 29.113281 -36.335938 29.113281 -48.070312 L 29.113281 -170.617188 Z M 9.027344 -170.617188 "/></g></g></g><g fill="#a2a9ad" fill-opacity="1"><g transform="translate(610.863473, 389.78721)"><g><path d="M 43.558594 -151.433594 C 43.558594 -158.203125 37.6875 -163.621094 30.917969 -163.621094 C 24.375 -163.621094 18.507812 -158.203125 18.507812 -151.433594 C 18.507812 -144.4375 24.375 -139.246094 30.917969 -139.246094 C 37.6875 -139.246094 43.558594 -144.886719 43.558594 -151.433594 Z M 40.621094 -125.253906 L 21.214844 -125.253906 L 21.214844 0 L 40.621094 0 Z M 40.621094 -125.253906 "/></g></g></g><g fill="#a2a9ad" fill-opacity="1"><g transform="translate(664.800456, 389.78721)"><g><path d="M 71.992188 -127.960938 C 57.550781 -127.960938 42.878906 -118.03125 37.914062 -104.265625 L 37.914062 -125.253906 L 18.507812 -125.253906 L 18.507812 0 L 37.914062 0 L 37.914062 -62.738281 C 37.914062 -80.570312 42.878906 -106.972656 67.703125 -106.972656 C 90.722656 -106.972656 94.335938 -84.855469 94.335938 -65.222656 L 94.335938 0 L 113.519531 0 L 113.519531 -77.410156 C 113.519531 -105.394531 102.910156 -127.960938 71.992188 -127.960938 Z M 71.992188 -127.960938 "/></g></g></g><g fill="#a2a9ad" fill-opacity="1"><g transform="translate(793.351071, 334.26809)"><g><path d="M 37.550781 -73.839844 L 37.550781 -118.253906 L 14.625 -118.253906 L 14.625 0 L 37.550781 0 L 37.550781 -52.175781 L 83.410156 -52.175781 L 83.410156 0 L 105.976562 0 L 105.976562 -118.253906 L 83.410156 -118.253906 L 83.410156 -73.839844 Z M 37.550781 -73.839844 "/></g></g></g><g fill="#a2a9ad" fill-opacity="1"><g transform="translate(907.627652, 334.26809)"><g><path d="M 47.664062 2.167969 C 58.132812 2.167969 69.6875 -5.234375 73.480469 -15.347656 L 73.480469 0 L 94.78125 0 L 94.78125 -100.199219 L 73.480469 -100.199219 L 73.296875 -45.855469 C 73.296875 -33.941406 68.242188 -20.582031 54.34375 -20.582031 C 39.359375 -20.582031 37.011719 -33.21875 37.011719 -45.855469 L 37.011719 -100.199219 L 15.527344 -100.199219 L 15.527344 -39.359375 C 15.527344 -18.234375 22.929688 2.167969 47.664062 2.167969 Z M 47.664062 2.167969 "/></g></g></g><g fill="#a2a9ad" fill-opacity="1"><g transform="translate(1010.711213, 334.26809)"><g><path d="M 101.644531 -50.730469 C 101.644531 -75.285156 87.921875 -102.183594 60.121094 -102.183594 C 51.632812 -102.183594 39.898438 -99.476562 33.761719 -92.976562 L 33.761719 -135.222656 L 13 -135.222656 L 13 0 L 33.761719 0 L 33.761719 -8.304688 C 41.886719 -1.265625 47.664062 1.984375 58.675781 1.984375 C 86.296875 1.984375 101.644531 -25.996094 101.644531 -50.730469 Z M 79.257812 -50.910156 C 79.257812 -35.566406 70.589844 -19.316406 53.078125 -19.316406 C 45.855469 -19.316406 38.273438 -22.746094 33.761719 -28.707031 L 33.761719 -73.480469 C 37.371094 -78.894531 46.21875 -82.324219 52.535156 -82.324219 C 69.507812 -82.324219 79.257812 -66.617188 79.257812 -50.910156 Z M 79.257812 -50.910156 "/></g></g></g></svg>